<?xml version="1.0" encoding="UTF-8" standalone="no"?>
<!-- Created with Inkscape (http://www.inkscape.org/) -->

<svg
   width="1220mm"
   height="610mm"
   viewBox="0 0 1220 610"
   version="1.1"
   id="svg13457"
   inkscape:version="1.2.1 (9c6d41e410, 2022-07-14, custom)"
   sodipodi:docname="picam-1.svg"
   xmlns:inkscape="http://www.inkscape.org/namespaces/inkscape"
   xmlns:sodipodi="http://sodipodi.sourceforge.net/DTD/sodipodi-0.dtd"
   xmlns="http://www.w3.org/2000/svg"
   xmlns:svg="http://www.w3.org/2000/svg">
  <sodipodi:namedview
     id="namedview13459"
     pagecolor="#ffffff"
     bordercolor="#666666"
     borderopacity="1.0"
     inkscape:showpageshadow="2"
     inkscape:pageopacity="0.0"
     inkscape:pagecheckerboard="0"
     inkscape:deskcolor="#d1d1d1"
     inkscape:document-units="mm"
     showgrid="false"
     inkscape:zoom="10.513497"
     inkscape:cx="767.48967"
     inkscape:cy="241.68934"
     inkscape:window-width="2560"
     inkscape:window-height="1389"
     inkscape:window-x="0"
     inkscape:window-y="27"
     inkscape:window-maximized="1"
     inkscape:current-layer="layer1" />
  <defs
     id="defs13454" />
  <g
     inkscape:label="Layer 1"
     inkscape:groupmode="layer"
     id="layer1">
    <path
       id="rect2099"
       style="fill:none;fill-opacity:0.263587;stroke:#000000;stroke-width:0.177268"
       d="M 99.000159,0 C 97.892161,0 96.999764,0.89188004 96.999764,1.9998779 V 27.50013 H 50.000049 v -1.500167 c 0,-1.107998 -0.89188,-1.999878 -1.999878,-1.999878 H 25.000024 c -1.107997,0 -1.999878,0.89188 -1.999878,1.999878 V 49.00011 c 0,1.107999 0.891881,1.999878 1.999878,1.999878 h 23.000147 c 1.107998,0 1.999878,-0.891879 1.999878,-1.999878 v -1.500167 h 46.999715 v 25.500252 c 0,1.107999 0.892397,1.999878 2.000395,1.999878 H 199.99968 c 1.108,0 2.00039,-0.891879 2.00039,-1.999878 V 61.635856 c -0.0502,-2.472594 1.69689,-4.136007 3.94675,-4.136007 h 12.537 c 3.60982,0 6.5164,-2.906059 6.5164,-6.515881 V 24.016105 c 0,-3.609822 -2.90658,-6.515881 -6.5164,-6.515881 0,0 -8.45885,-0.07426 -12.42181,0 -3.96296,0.07426 -4.06194,-4.013411 -4.06194,-4.013411 V 1.9998779 C 202.00007,0.89188004 201.10768,0 199.99968,0 Z"
       sodipodi:nodetypes="ssccssssssssccssssccsssszcsss" />
    <circle
       style="fill:none;fill-opacity:0.263587;stroke:#000000;stroke-width:0.490205"
       id="path2230"
       cx="103.4999"
       cy="6.0000286"
       r="1.5" />
    <circle
       style="fill:none;fill-opacity:0.263587;stroke:#000000;stroke-width:0.490205"
       id="circle2232"
       cx="195.49991"
       cy="69.000023"
       r="1.5" />
    <circle
       style="fill:none;fill-opacity:0.263587;stroke:#000000;stroke-width:0.490205"
       id="circle2234"
       cx="195.49991"
       cy="6.0000286"
       r="1.5" />
    <circle
       style="fill:none;fill-opacity:0.263587;stroke:#000000;stroke-width:0.490205"
       id="circle2236"
       cx="103.4999"
       cy="69.000023"
       r="1.5" />
    <g
       id="g957"
       transform="rotate(90,25.13745,48.862589)">
      <circle
         style="fill:none;fill-opacity:0.263587;stroke:#000000;stroke-width:0.326803"
         id="circle2272"
         cx="3.1290691"
         cy="27.000038"
         r="1" />
      <circle
         style="fill:none;fill-opacity:0.263587;stroke:#000000;stroke-width:0.326803"
         id="circle2293"
         cx="15.629069"
         cy="27.000038"
         r="1" />
      <circle
         style="fill:none;fill-opacity:0.263587;stroke:#000000;stroke-width:0.326803"
         id="circle2295"
         cx="3.1290691"
         cy="48.000038"
         r="1" />
      <circle
         style="fill:none;fill-opacity:0.263587;stroke:#000000;stroke-width:0.326803"
         id="circle2297"
         cx="15.629069"
         cy="48.000038"
         r="1" />
      <rect
         style="fill:none;fill-opacity:0.263587;stroke:#000000;stroke-width:1.04693"
         id="rect6262"
         width="9"
         height="9"
         x="11.129069"
         y="33.000038" />
    </g>
    <circle
       style="fill:none;fill-opacity:0.263587;stroke:#000000;stroke-width:0.249553"
       id="path9531"
       cx="215"
       cy="37.500038"
       r="2.5" />
  </g>
</svg>
