<?xml version="1.0" encoding="UTF-8" standalone="no"?>
<svg
   width="121mm"
   height="541mm"
   viewBox="0 -541 121 541"
   version="1.1"
   id="svg9552"
   sodipodi:docname="picam-4.svg"
   inkscape:version="1.2.1 (9c6d41e410, 2022-07-14, custom)"
   xmlns:inkscape="http://www.inkscape.org/namespaces/inkscape"
   xmlns:sodipodi="http://sodipodi.sourceforge.net/DTD/sodipodi-0.dtd"
   xmlns="http://www.w3.org/2000/svg"
   xmlns:svg="http://www.w3.org/2000/svg">
  <defs
     id="defs9556" />
  <sodipodi:namedview
     id="namedview9554"
     pagecolor="#ffffff"
     bordercolor="#666666"
     borderopacity="1.0"
     inkscape:showpageshadow="2"
     inkscape:pageopacity="0.0"
     inkscape:pagecheckerboard="0"
     inkscape:deskcolor="#d1d1d1"
     inkscape:document-units="mm"
     showgrid="false"
     inkscape:zoom="0.43917899"
     inkscape:cx="203.78935"
     inkscape:cy="1022.3622"
     inkscape:window-width="2560"
     inkscape:window-height="1389"
     inkscape:window-x="0"
     inkscape:window-y="27"
     inkscape:window-maximized="1"
     inkscape:current-layer="svg9552" />
  <title
     id="title9548">OpenSCAD Model</title>
  <path
     d="m 3,-448.97 v 16 H 0 v 9 h 9 v 3 h 6.1013 v -3 h 6.1012 v 3 h 6.1013 v -3 h 6.1013 v 3 h 6.1012 v -3 h 6.1013 v 3 h 6.1012 v -3 h 6.1013 v 3 h 6.1013 v -3 h 6.1012 v 3 h 6.1013 v -3 h 6.1013 v 3 h 6.1013 v -3 h 6.1012 v 3 h 6.1013 v -3 h 6.101 v 3 h 6.102 v -3 h 6.101 v 3 h 6.101 v -3 h 6.101 v 3 h 6.102 v -3 h 6.101 v 3 h 6.101 v -3 h 6.101 v 3 h 6.102 v -3 h 6.101 v 3 h 6.101 v -3 h 6.101 v 3 h 6.102 v -3 h 6.101 v 3 h 6.101 v -3 h 6.101 v 3 h 6.102 v -3 h 6.101 v 3 h 6.101 v -3 h 6.102 v 3 h 6.101 v -3 h 6.101 v 3 h 6.101 v -3 h 6.102 v 3 h 6.101 v -3 h 6.101 v 3 h 6.101 v -3 h 6.102 v 3 h 6.101 v -3 h 6.101 v 3 h 6.101 v -3 h 6.102 v 3 h 6.101 v -3 h 6.101 v 3 h 6.102 v -3 h 6.101 v 3 h 6.101 v -3 h 6.101 v 3 h 6.102 v -3 h 6.101 v 3 h 6.101 v -3 h 6.101 v 3 h 6.102 v -3 h 6.101 v 3 h 6.101 v -3 h 6.101 v 3 h 6.102 v -3 h 6.101 v 3 h 6.101 v -3 h 6.102 v 3 h 6.101 v -3 h 6.101 v 3 h 6.101 v -3 h 6.102 v 3 h 6.101 v -3 h 6.101 v 3 h 6.101 v -3 h 6.102 v 3 h 6.101 v -3 h 6.101 v 3 h 6.101 v -3 h 6.102 v 3 H 491 v -3 h 9 v -9 h -3 v -16 h 3 v -9 h -9 v -3 h -6.101 v 3 h -6.102 v -3 h -6.101 v 3 h -6.101 v -3 h -6.101 v 3 h -6.102 v -3 h -6.101 v 3 h -6.101 v -3 h -6.101 v 3 h -6.102 v -3 h -6.101 v 3 h -6.101 v -3 h -6.101 v 3 h -6.102 v -3 h -6.101 v 3 h -6.101 v -3 h -6.102 v 3 h -6.101 v -3 h -6.101 v 3 h -6.101 v -3 h -6.102 v 3 h -6.101 v -3 h -6.101 v 3 h -6.101 v -3 h -6.102 v 3 h -6.101 v -3 h -6.101 v 3 h -6.101 v -3 h -6.102 v 3 h -6.101 v -3 h -6.101 v 3 h -6.101 v -3 h -6.102 v 3 h -6.101 v -3 h -6.101 v 3 h -6.102 v -3 h -6.101 v 3 h -6.101 v -3 h -6.101 v 3 h -6.102 v -3 h -6.101 v 3 h -6.101 v -3 h -6.101 v 3 h -6.102 v -3 h -6.101 v 3 h -6.101 v -3 h -6.101 v 3 h -6.102 v -3 h -6.101 v 3 h -6.101 v -3 h -6.102 v 3 h -6.101 v -3 h -6.101 v 3 h -6.101 v -3 h -6.102 v 3 h -6.101 v -3 h -6.101 v 3 h -6.101 v -3 h -6.102 v 3 h -6.101 v -3 h -6.101 v 3 h -6.101 v -3 h -6.102 v 3 h -6.101 v -3 h -6.1013 v 3 h -6.1012 v -3 h -6.1013 v 3 h -6.1013 v -3 h -6.1012 v 3 h -6.1013 v -3 h -6.1013 v 3 h -6.1012 v -3 h -6.1013 v 3 h -6.1013 v -3 h -6.1012 v 3 h -6.1013 v -3 h -6.1013 v 3 h -6.1012 v -3 H 9.00002 v 3 H 0 v 9 z"
     id="path10048"
     style="fill:none;stroke:#000000;stroke-opacity:1" />
  <path
     d="m 3,-488.98 v 16 H 0 v 9 h 9 v 3 h 6.1013 v -3 h 6.1012 v 3 h 6.1013 v -3 h 6.1013 v 3 h 6.1012 v -3 h 6.1013 v 3 h 6.1012 v -3 h 6.1013 v 3 h 6.1013 v -3 h 6.1012 v 3 h 6.1013 v -3 h 6.1013 v 3 h 6.1013 v -3 h 6.1012 v 3 h 6.1013 v -3 h 6.101 v 3 h 6.102 v -3 h 6.101 v 3 h 6.101 v -3 h 6.101 v 3 h 6.102 v -3 h 6.101 v 3 h 6.101 v -3 h 6.101 v 3 h 6.102 v -3 h 6.101 v 3 h 6.101 v -3 h 6.101 v 3 h 6.102 v -3 h 6.101 v 3 h 6.101 v -3 h 6.101 v 3 h 6.102 v -3 h 6.101 v 3 h 6.101 v -3 h 6.102 v 3 h 6.101 v -3 h 6.101 v 3 h 6.101 v -3 h 6.102 v 3 h 6.101 v -3 h 6.101 v 3 h 6.101 v -3 h 6.102 v 3 h 6.101 v -3 h 6.101 v 3 h 6.101 v -3 h 6.102 v 3 h 6.101 v -3 h 6.101 v 3 h 6.102 v -3 h 6.101 v 3 h 6.101 v -3 h 6.101 v 3 h 6.102 v -3 h 6.101 v 3 h 6.101 v -3 h 6.101 v 3 h 6.102 v -3 h 6.101 v 3 h 6.101 v -3 h 6.101 v 3 h 6.102 v -3 h 6.101 v 3 h 6.101 v -3 h 6.102 v 3 h 6.101 v -3 h 6.101 v 3 h 6.101 v -3 h 6.102 v 3 h 6.101 v -3 h 6.101 v 3 h 6.101 v -3 h 6.102 v 3 h 6.101 v -3 h 6.101 v 3 h 6.101 v -3 h 6.102 v 3 H 491 v -3 h 9 v -9 h -3 v -16 h 3 v -9 h -9 v -3 h -6.101 v 3 h -6.102 v -3 h -6.101 v 3 h -6.101 v -3 h -6.101 v 3 h -6.102 v -3 h -6.101 v 3 h -6.101 v -3 h -6.101 v 3 h -6.102 v -3 h -6.101 v 3 h -6.101 v -3 h -6.101 v 3 h -6.102 v -3 h -6.101 v 3 h -6.101 v -3 h -6.102 v 3 h -6.101 v -3 h -6.101 v 3 h -6.101 v -3 h -6.102 v 3 h -6.101 v -3 h -6.101 v 3 h -6.101 v -3 h -6.102 v 3 h -6.101 v -3 h -6.101 v 3 h -6.101 v -3 h -6.102 v 3 h -6.101 v -3 h -6.101 v 3 h -6.101 v -3 h -6.102 v 3 h -6.101 v -3 h -6.101 v 3 h -6.102 v -3 h -6.101 v 3 h -6.101 v -3 h -6.101 v 3 h -6.102 v -3 h -6.101 v 3 h -6.101 v -3 h -6.101 v 3 h -6.102 v -3 h -6.101 v 3 h -6.101 v -3 h -6.101 v 3 h -6.102 v -3 h -6.101 v 3 h -6.101 v -3 h -6.102 v 3 h -6.101 v -3 h -6.101 v 3 h -6.101 v -3 h -6.102 v 3 h -6.101 v -3 h -6.101 v 3 h -6.101 v -3 h -6.102 v 3 h -6.101 v -3 h -6.101 v 3 h -6.101 v -3 h -6.102 v 3 h -6.101 v -3 h -6.1013 v 3 h -6.1012 v -3 h -6.1013 v 3 h -6.1013 v -3 h -6.1012 v 3 h -6.1013 v -3 h -6.1013 v 3 h -6.1012 v -3 h -6.1013 v 3 h -6.1013 v -3 h -6.1012 v 3 h -6.1013 v -3 h -6.1013 v 3 h -6.1012 v -3 H 9.00002 v 3 H 0 v 9 z"
     id="path10046"
     style="fill:none;stroke:#000000;stroke-opacity:1" />
  <path
     d="m 3,-513.99 v 6 H 0 v 7 h 9 v -3 h 6.1013 v 3 h 6.1012 v -3 h 6.1013 v 3 h 6.1013 v -3 h 6.1012 v 3 h 6.1013 v -3 h 6.1012 v 3 h 6.1013 v -3 h 6.1013 v 3 h 6.1012 v -3 h 6.1013 v 3 h 6.1013 v -3 h 6.1013 v 3 h 6.1012 v -3 h 6.1013 v 3 h 6.101 v -3 h 6.102 v 3 h 6.101 v -3 h 6.101 v 3 h 6.101 v -3 h 6.102 v 3 h 6.101 v -3 h 6.101 v 3 h 6.101 v -3 h 6.102 v 3 h 6.101 v -3 h 6.101 v 3 h 6.101 v -3 h 6.102 v 3 h 6.101 v -3 h 6.101 v 3 h 6.101 v -3 h 6.102 v 3 h 6.101 v -3 h 6.101 v 3 h 6.102 v -3 h 6.101 v 3 h 6.101 v -3 h 6.101 v 3 h 6.102 v -3 h 6.101 v 3 h 6.101 v -3 h 6.101 v 3 h 6.102 v -3 h 6.101 v 3 h 6.101 v -3 h 6.101 v 3 h 6.102 v -3 h 6.101 v 3 h 6.101 v -3 h 6.102 v 3 h 6.101 v -3 h 6.101 v 3 h 6.101 v -3 h 6.102 v 3 h 6.101 v -3 h 6.101 v 3 h 6.101 v -3 h 6.102 v 3 h 6.101 v -3 h 6.101 v 3 h 6.101 v -3 h 6.102 v 3 h 6.101 v -3 h 6.101 v 3 h 6.102 v -3 h 6.101 v 3 h 6.101 v -3 h 6.101 v 3 h 6.102 v -3 h 6.101 v 3 h 6.101 v -3 h 6.101 v 3 h 6.102 v -3 h 6.101 v 3 h 6.101 v -3 h 6.101 v 3 h 6.102 v -3 H 491 v 3 h 9 v -7 h -3 v -6 h 3 v -7 h -9 v 3 h -6.101 v -3 h -6.102 v 3 h -6.101 v -3 h -6.101 v 3 h -6.101 v -3 h -6.102 v 3 h -6.101 v -3 h -6.101 v 3 h -6.101 v -3 h -6.102 v 3 h -6.101 v -3 h -6.101 v 3 h -6.101 v -3 h -6.102 v 3 h -6.101 v -3 h -6.101 v 3 h -6.102 v -3 h -6.101 v 3 h -6.101 v -3 h -6.101 v 3 h -6.102 v -3 h -6.101 v 3 h -6.101 v -3 h -6.101 v 3 h -6.102 v -3 h -6.101 v 3 h -6.101 v -3 h -6.101 v 3 h -6.102 v -3 h -6.101 v 3 h -6.101 v -3 h -6.101 v 3 h -6.102 v -3 h -6.101 v 3 h -6.101 v -3 h -6.102 v 3 h -6.101 v -3 h -6.101 v 3 h -6.101 v -3 h -6.102 v 3 h -6.101 v -3 h -6.101 v 3 h -6.101 v -3 h -6.102 v 3 h -6.101 v -3 h -6.101 v 3 h -6.101 v -3 h -6.102 v 3 h -6.101 v -3 h -6.101 v 3 h -6.102 v -3 h -6.101 v 3 h -6.101 v -3 h -6.101 v 3 h -6.102 v -3 h -6.101 v 3 h -6.101 v -3 h -6.101 v 3 h -6.102 v -3 h -6.101 v 3 h -6.101 v -3 h -6.101 v 3 h -6.102 v -3 h -6.101 v 3 h -6.1013 v -3 h -6.1012 v 3 h -6.1013 v -3 h -6.1013 v 3 h -6.1012 v -3 h -6.1013 v 3 h -6.1013 v -3 h -6.1012 v 3 h -6.1013 v -3 h -6.1013 v 3 h -6.1012 v -3 h -6.1013 v 3 h -6.1013 v -3 h -6.1012 v 3 H 9.00002 v -3 H 0 v 7 z"
     id="path10044"
     style="fill:none;stroke:#000000;stroke-opacity:1" />
  <path
     d="m 3,-534 v 6 H 0 v 7 h 9 v -3 h 6.1013 v 3 h 6.1012 v -3 h 6.1013 v 3 h 6.1013 v -3 h 6.1012 v 3 h 6.1013 v -3 h 6.1012 v 3 h 6.1013 v -3 h 6.1013 v 3 h 6.1012 v -3 h 6.1013 v 3 h 6.1013 v -3 h 6.1013 v 3 h 6.1012 v -3 h 6.1013 v 3 h 6.101 v -3 h 6.102 v 3 h 6.101 v -3 h 6.101 v 3 h 6.101 v -3 h 6.102 v 3 h 6.101 v -3 h 6.101 v 3 h 6.101 v -3 h 6.102 v 3 h 6.101 v -3 h 6.101 v 3 h 6.101 v -3 h 6.102 v 3 h 6.101 v -3 h 6.101 v 3 h 6.101 v -3 h 6.102 v 3 h 6.101 v -3 h 6.101 v 3 h 6.102 v -3 h 6.101 v 3 h 6.101 v -3 h 6.101 v 3 h 6.102 v -3 h 6.101 v 3 h 6.101 v -3 h 6.101 v 3 h 6.102 v -3 h 6.101 v 3 h 6.101 v -3 h 6.101 v 3 h 6.102 v -3 h 6.101 v 3 h 6.101 v -3 h 6.102 v 3 h 6.101 v -3 h 6.101 v 3 h 6.101 v -3 h 6.102 v 3 h 6.101 v -3 h 6.101 v 3 h 6.101 v -3 h 6.102 v 3 h 6.101 v -3 h 6.101 v 3 h 6.101 v -3 h 6.102 v 3 h 6.101 v -3 h 6.101 v 3 h 6.102 v -3 h 6.101 v 3 h 6.101 v -3 h 6.101 v 3 h 6.102 v -3 h 6.101 v 3 h 6.101 v -3 h 6.101 v 3 h 6.102 v -3 h 6.101 v 3 h 6.101 v -3 h 6.101 v 3 h 6.102 v -3 H 491 v 3 h 9 v -7 h -3 v -6 h 3 v -7 h -9 v 3 h -6.101 v -3 h -6.102 v 3 h -6.101 v -3 h -6.101 v 3 h -6.101 v -3 h -6.102 v 3 h -6.101 v -3 h -6.101 v 3 h -6.101 v -3 h -6.102 v 3 h -6.101 v -3 h -6.101 v 3 h -6.101 v -3 h -6.102 v 3 h -6.101 v -3 h -6.101 v 3 h -6.102 v -3 h -6.101 v 3 h -6.101 v -3 h -6.101 v 3 h -6.102 v -3 h -6.101 v 3 h -6.101 v -3 h -6.101 v 3 h -6.102 v -3 h -6.101 v 3 h -6.101 v -3 h -6.101 v 3 h -6.102 v -3 h -6.101 v 3 h -6.101 v -3 h -6.101 v 3 h -6.102 v -3 h -6.101 v 3 h -6.101 v -3 h -6.102 v 3 h -6.101 v -3 h -6.101 v 3 h -6.101 v -3 h -6.102 v 3 h -6.101 v -3 h -6.101 v 3 h -6.101 v -3 h -6.102 v 3 h -6.101 v -3 h -6.101 v 3 h -6.101 v -3 h -6.102 v 3 h -6.101 v -3 h -6.101 v 3 h -6.102 v -3 h -6.101 v 3 h -6.101 v -3 h -6.101 v 3 h -6.102 v -3 h -6.101 v 3 h -6.101 v -3 h -6.101 v 3 h -6.102 v -3 h -6.101 v 3 h -6.101 v -3 h -6.101 v 3 h -6.102 v -3 h -6.101 v 3 h -6.1013 v -3 h -6.1012 v 3 h -6.1013 v -3 h -6.1013 v 3 h -6.1012 v -3 h -6.1013 v 3 h -6.1013 v -3 h -6.1012 v 3 h -6.1013 v -3 h -6.1013 v 3 h -6.1012 v -3 h -6.1013 v 3 h -6.1013 v -3 h -6.1012 v 3 H 9.00002 v -3 H 0 v 7 z"
     id="path10042"
     style="fill:none;stroke:#000000;stroke-opacity:1" />
</svg>
